HIERARCHY
ROOT hip
{
  OFFSET 0 0 0
  CHANNELS 6 Xposition Yposition Zposition Zrotation Yrotation Xrotation
  JOINT abdomen
  {
    OFFSET 0 20.6881 -0.73152
    CHANNELS 3 Zrotation Xrotation Yrotation
    JOINT chest
    {
      OFFSET 0 11.7043 -0.48768
      CHANNELS 3 Zrotation Xrotation Yrotation
      JOINT neck
      {
        OFFSET 0 22.1894 -2.19456
        CHANNELS 3 Zrotation Xrotation Yrotation
        JOINT head
        {
          OFFSET -0.24384 7.07133 1.2192
          CHANNELS 3 Zrotation Xrotation Yrotation
          JOINT leftEye
          {
            OFFSET 4.14528 8.04674 8.04672
            CHANNELS 3 Zrotation Xrotation Yrotation
            End Site
            {
              OFFSET 1 0 0
            }
          }
          JOINT rightEye
          {
            OFFSET -3.6576 8.04674 8.04672
            CHANNELS 3 Zrotation Xrotation Yrotation
            End Site
            {
              OFFSET 1 0 0
            }
          }
        }
      }
      JOINT rCollar
      {
        OFFSET -2.68224 19.2634 -4.8768
        CHANNELS 3 Zrotation Xrotation Yrotation
        JOINT rShldr
        {
          OFFSET -8.77824 -1.95073 1.46304
          CHANNELS 3 Zrotation Xrotation Yrotation
          JOINT rForeArm
          {
            OFFSET -28.1742 -1.7115 0.48768
            CHANNELS 3 Zrotation Xrotation Yrotation
            JOINT rHand
            {
              OFFSET -22.5879 0.773209 7.07136
              CHANNELS 3 Zrotation Xrotation Yrotation
              JOINT rThumb1
              {
                OFFSET -1.2192 -0.487915 3.41376
                CHANNELS 3 Zrotation Xrotation Yrotation
                JOINT rThumb2
                {
                  OFFSET -3.37035 -0.52449 3.41376
                  CHANNELS 3 Zrotation Xrotation Yrotation
                  End Site
                  {
                    OFFSET -1.78271 -1.18214 1.43049
                  }
                }
              }
              JOINT rIndex1
              {
                OFFSET -7.75947 0.938293 5.60832
                CHANNELS 3 Zrotation Xrotation Yrotation
                JOINT rIndex2
                {
                  OFFSET -2.54057 -0.884171 1.56538
                  CHANNELS 3 Zrotation Xrotation Yrotation
                  End Site
                  {
                    OFFSET -1.62519 -0.234802 1.16502
                  }
                }
              }
              JOINT rMid1
              {
                OFFSET -8.24714 1.18213 3.41376
                CHANNELS 3 Zrotation Xrotation Yrotation
                JOINT rMid2
                {
                  OFFSET -3.10165 -0.590103 1.0647
                  CHANNELS 3 Zrotation Xrotation Yrotation
                  End Site
                  {
                    OFFSET -2.48547 -0.328903 0.83742
                  }
                }
              }
              JOINT rRing1
              {
                OFFSET -8.82822 0.546677 1.51678
                CHANNELS 3 Zrotation Xrotation Yrotation
                JOINT rRing2
                {
                  OFFSET -2.60934 -0.819778 -0.0198488
                  CHANNELS 3 Zrotation Xrotation Yrotation
                  End Site
                  {
                    OFFSET -2.33842 -0.294052 0.168128
                  }
                }
              }
              JOINT rPinky1
              {
                OFFSET -8.27202 -0.0477905 -0.4584
                CHANNELS 3 Zrotation Xrotation Yrotation
                JOINT rPinky2
                {
                  OFFSET -1.82734 -0.647385 -0.700984
                  CHANNELS 3 Zrotation Xrotation Yrotation
                  End Site
                  {
                    OFFSET -1.69225 -0.51767 -0.607171
                  }
                }
              }
            }
          }
        }
      }
      JOINT lCollar
      {
        OFFSET 2.68224 19.2634 -4.8768
        CHANNELS 3 Zrotation Xrotation Yrotation
        JOINT lShldr
        {
          OFFSET 8.77824 -1.95073 1.46304
          CHANNELS 3 Zrotation Xrotation Yrotation
          JOINT lForeArm
          {
            OFFSET 28.1742 -1.7115 0.48768
            CHANNELS 3 Zrotation Xrotation Yrotation
            JOINT lHand
            {
              OFFSET 22.5879 0.773209 7.07136
              CHANNELS 3 Zrotation Xrotation Yrotation
              JOINT lThumb1
              {
                OFFSET 1.2192 -0.487915 3.41376
                CHANNELS 3 Zrotation Xrotation Yrotation
                JOINT lThumb2
                {
                  OFFSET 3.37035 -0.52449 3.41376
                  CHANNELS 3 Zrotation Xrotation Yrotation
                  End Site
                  {
                    OFFSET 1.78271 -1.18214 1.43049
                  }
                }
              }
              JOINT lIndex1
              {
                OFFSET 7.75947 0.938293 5.60832
                CHANNELS 3 Zrotation Xrotation Yrotation
                JOINT lIndex2
                {
                  OFFSET 2.54057 -0.884171 1.56538
                  CHANNELS 3 Zrotation Xrotation Yrotation
                  End Site
                  {
                    OFFSET 1.62519 -0.234802 1.16502
                  }
                }
              }
              JOINT lMid1
              {
                OFFSET 8.24714 1.18213 3.41376
                CHANNELS 3 Zrotation Xrotation Yrotation
                JOINT lMid2
                {
                  OFFSET 3.10165 -0.590103 1.0647
                  CHANNELS 3 Zrotation Xrotation Yrotation
                  End Site
                  {
                    OFFSET 2.48547 -0.328903 0.83742
                  }
                }
              }
              JOINT lRing1
              {
                OFFSET 8.82822 0.546677 1.51678
                CHANNELS 3 Zrotation Xrotation Yrotation
                JOINT lRing2
                {
                  OFFSET 2.60934 -0.819778 -0.0198488
                  CHANNELS 3 Zrotation Xrotation Yrotation
                  End Site
                  {
                    OFFSET 2.33842 -0.294052 0.168128
                  }
                }
              }
              JOINT lPinky1
              {
                OFFSET 8.27202 -0.0477905 -0.4584
                CHANNELS 3 Zrotation Xrotation Yrotation
                JOINT lPinky2
                {
                  OFFSET 1.82734 -0.647385 -0.700984
                  CHANNELS 3 Zrotation Xrotation Yrotation
                  End Site
                  {
                    OFFSET 1.69225 -0.51767 -0.607171
                  }
                }
              }
            }
          }
        }
      }
    }
  }
  JOINT rButtock
  {
    OFFSET -8.77824 4.35084 1.2192
    CHANNELS 3 Zrotation Xrotation Yrotation
    JOINT rThigh
    {
      OFFSET 0 -1.70687 -2.19456
      CHANNELS 3 Zrotation Xrotation Yrotation
      JOINT rShin
      {
        OFFSET 0 -36.8199 0.73152
        CHANNELS 3 Zrotation Xrotation Yrotation
        JOINT rFoot
        {
          OFFSET 0.73152 -45.1104 -5.12064
          CHANNELS 3 Zrotation Xrotation Yrotation
          End Site
          {
            OFFSET -1.1221 -3.69964 12.103
          }
        }
      }
    }
  }
  JOINT lButtock
  {
    OFFSET 8.77824 4.35084 1.2192
    CHANNELS 3 Zrotation Xrotation Yrotation
    JOINT lThigh
    {
      OFFSET 0 -1.70687 -2.19456
      CHANNELS 3 Zrotation Xrotation Yrotation
      JOINT lShin
      {
        OFFSET 0 -36.8199 0.73152
        CHANNELS 3 Zrotation Xrotation Yrotation
        JOINT lFoot
        {
          OFFSET -0.73152 -45.1104 -5.12064
          CHANNELS 3 Zrotation Xrotation Yrotation
          End Site
          {
            OFFSET 1.1221 -3.69964 12.103
          }
        }
      }
    }
  }
}
MOTION
Frames:	4
Frame Time:	0.03333
0.0 0.0 0.0 0.0 0.0 0.0 0.0 0.0 0.0 0.0 0.0 0.0 0.0 0.0 0.0 0.0 0.0 0.0 0.0 0.0 0.0 0.0 0.0 0.0 0.0 0.0 0.0 0.0 0.0 0.0 0.0 0.0 0.0 0.0 0.0 0.0 0.0 0.0 0.0 0.0 0.0 0.0 0.0 0.0 0.0 0.0 0.0 0.0 0.0 0.0 0.0 0.0 0.0 0.0 0.0 0.0 0.0 0.0 0.0 0.0 0.0 0.0 0.0 0.0 0.0 0.0 0.0 0.0 0.0 0.0 0.0 0.0 0.0 0.0 0.0 0.0 0.0 0.0 0.0 0.0 0.0 0.0 0.0 0.0 0.0 0.0 0.0 0.0 0.0 0.0 0.0 0.0 0.0 0.0 0.0 0.0 0.0 0.0 0.0 0.0 0.0 0.0 0.0 0.0 0.0 0.0 0.0 0.0 0.0 0.0 0.0 0.0 0.0 0.0 0.0 0.0 0.0 0.0 0.0 0.0 0.0 0.0 0.0 0.0 0.0 0.0 0.0 0.0 0.0 0.0 0.0 0.0
-0.002 62.248000000000005 0.0484 0.569119 40.362929 -0.339063 -2.533967 1.808501 58.002435 7.086616 -10.592632 -139.259365 8.287519 -5.607263 134.217105 28.464072 48.134026 139.173329 148.916655 -19.305341 62.897582 -65.486468 4.286323 -6.661162 79.638525 -54.184666 -10.151087 -161.532595 -1.717967 170.47502 -113.575763 -78.604495 36.151415 24.890699 -41.824185 -45.300412 14.230326 -13.428831 38.832467 -36.887616 33.030561 -131.752514 -138.448046 75.134334 -163.200477 123.635877 4.203331 162.446043 -34.573679 -16.385242 -121.746084 14.442282 -22.854201 49.061101 -90.574279 9.173907 -90.487031 -162.741505 -63.724681 -174.873689 22.791055 9.628986 -62.117112 -82.052729 -48.099529 -80.402319 25.761 65.015266 -106.549285 -4.157413 21.839314 -10.736873 -2.241627 -44.979054 -164.596539 -153.969711 -40.237029 -114.439364 2.074717 -16.571298 2.24797 -47.474719 -63.998742 -29.994532 45.194479 24.441576 -45.815377 174.578451 42.907773 -151.840361 -86.407261 -42.84618 -20.546535 -16.092559 -24.906545 -38.090226 -157.9736 13.352941 35.709697 -2.544569 58.958741 -2.719534 76.650732 62.277869 88.563413 150.86221 -10.462973 135.435221 49.443524 -13.168798 76.774613 -2.78409 50.080036 -180.0 -7.330457 -0.561241 -88.831659 -58.631323 69.395615 67.907279 55.45359 -6.26929 81.435122 -6.156136 55.095318 161.949075 -7.145249 -1.471947 -101.711158 -48.552114 72.509121 42.833657
-0.5593 58.426 0.259 1.512841 72.855507 6.328704 -4.500906 21.920535 11.90686 1.268615 -13.08453 -5.963546 -12.315468 23.762119 -61.197157 44.053318 -6.018858 63.884135 -35.514716 8.253592 -25.393483 14.135592 -3.428237 -27.139405 -1.713011 -44.409134 -10.617507 51.872998 4.929737 -24.571653 -12.713871 48.296936 102.434168 -3.493045 15.552173 -10.787955 -168.985895 1.362677 92.758214 -113.107249 11.12077 61.807827 -165.992668 -25.903347 133.275126 18.724772 5.844628 -24.613472 -7.064652 26.754514 5.677351 -173.209601 -21.044942 143.567618 -144.395632 22.898891 163.644519 -165.382016 0.783401 -177.336439 -134.412259 28.018111 -164.985375 -18.195684 -37.552187 -31.886257 155.906918 -4.421963 -161.35433 51.562561 -15.479867 19.454308 -27.562238 -2.490435 125.114449 175.880482 15.771335 -137.934879 0.711563 -10.424487 -0.501049 114.604273 -27.661172 -141.066964 37.644756 47.71531 -38.241734 96.892514 57.573383 -63.744135 146.884513 30.843614 -121.221121 -17.286384 -32.179787 -13.534548 71.97365 -72.556622 89.565579 166.367403 64.81345 174.380517 -73.249808 52.266477 39.659514 60.015545 -26.801889 -7.784931 15.931407 -0.408943 7.788433 -66.238181 -38.192312 -180.0 -85.731781 -58.517294 9.221494 167.567853 18.068601 -66.057109 175.226136 75.834774 9.901126 -148.118669 16.33135 -9.251335 -68.594805 82.625424 -14.41306 164.539938 45.129555 -81.562021
-1.3643 55.562999999999995 0.31970000000000004 6.432846 70.0732 11.884599 -2.077607 18.828705 -157.119757 2.916415 6.387252 167.373738 11.501142 26.164161 96.236556 -43.761352 14.017806 -88.012955 15.061357 -0.357071 -2.700553 19.869864 -7.840303 -42.733932 -159.358554 -0.125482 162.806785 78.756624 -81.606327 115.698111 -23.747021 -72.276162 75.554048 -5.364353 18.866216 -9.397305 -161.991407 -4.07382 82.797332 31.16644 -41.12631 40.260969 -2.554733 -5.623965 6.877796 -10.024605 20.95972 -7.945657 172.23894 -67.268762 121.092668 -3.663394 11.641643 12.776235 82.107683 -87.305877 78.700262 26.508155 60.731293 -29.081833 -137.40718 20.558401 -176.024105 -138.202991 39.778695 -170.379624 160.112761 -49.18348 -168.232049 -105.93416 46.656539 113.656494 -167.119685 -5.773831 -35.875975 171.003666 11.561665 -136.569398 -93.503047 -41.607636 -57.795301 45.620927 46.564895 10.757609 -62.238657 -62.234042 -24.084644 5.804969 32.399888 -40.224618 7.646589 -1.222825 -10.59963 118.251124 10.511879 -152.153696 135.813037 1.193609 179.345003 128.237195 -10.506876 -170.420682 -75.683847 66.667923 33.990158 11.940825 63.038478 -29.840961 -0.011046 7.243407 0.087611 -74.815889 -57.413609 -180.0 -94.744741 -21.558976 148.91441 -57.675734 36.214826 -33.017801 -0.203048 -2.926305 -3.970967 54.524666 -49.671719 -118.514491 -103.815742 -61.523216 170.773407 -168.476582 -1.573137 78.503707
